<svg xmlns="http://www.w3.org/2000/svg" viewBox="0 0 767 218"><defs><style>.cls-1{fill:none;stroke:#fff;stroke-miterlimit:10;}</style></defs><title>gra-svg</title><g id="レイヤー_2" data-name="レイヤー 2"><path class="cls-1" d="M460.75,29.38c-2.65,1.64-5,3.66-17.39,14.75-8.82,7.56-19.53,16-29.49,23.18-3.4,2.52-4.16,3.28-4.16,4.41,0,1.52,0,1.52,11.85,10.21,12.6,9.2,25.45,19.4,38.43,31,.63.5,2,1.64,3.91,3.15l-18,18.39c-6.43-9.32-24.32-25.32-49.65-44.6-6.3-4.92-8.57-7.18-10.2-10.33a20.56,20.56,0,0,1-1.9-8.32,17.85,17.85,0,0,1,4.67-12c1.76-2,3.65-3.66,11.46-9.58,19-14.11,35-28.48,39.44-35.15Zm-4,18.15a99.79,99.79,0,0,1,12.86,18.65L458,72.48a89.22,89.22,0,0,0-12.85-19Zm16.13-8.44a99.51,99.51,0,0,1,13,18.14l-11.21,6.18c-4.54-8.07-8.32-13.74-12.73-18.65Z"/><path class="cls-1" d="M535.71,43.5a277.35,277.35,0,0,0-5.41,30.62c10.58-6.81,21.67-9.83,36-9.83,22.43,0,37.3,11.72,37.3,29.61a31.83,31.83,0,0,1-14.24,26.71c-9.07,6.18-20.54,9.08-36,9.08a134.73,134.73,0,0,1-31.63-3.78c-.38-10.46-.88-14.49-2.9-22.43,12.47,3.9,24.19,5.92,33.64,5.92,16.64,0,27.73-5.92,27.73-14.87,0-6.68-6.56-10.58-17.9-10.58a54.5,54.5,0,0,0-27.59,7.56,21.74,21.74,0,0,0-7.06,5.67l-20.92-.89a15.69,15.69,0,0,0,.38-2.52c.63-6,3.28-26.21,5.8-43.59a71.67,71.67,0,0,0,.75-8.07Zm-2.26-27.72c6.17,3.15,13.73,5.79,25.7,8.94,8.57,2.27,19.41,4.54,25.33,5.42L577.8,50.43c-22.81-4.66-39.69-9.7-54.43-16.51Z"/><path class="cls-1" d="M145.06,169.1a26.56,26.56,0,0,0-4.28.23v-8.19a34.58,34.58,0,0,0,5.67.28h3.46a56.79,56.79,0,0,0,5.71-.23,46,46,0,0,0-.31,6.29v5.19a50.27,50.27,0,0,0,.31,6.9,20.7,20.7,0,0,1-5.5,2.91,27.07,27.07,0,0,1-9.16,1.58c-5.5,0-9.78-1.62-12.85-5-3.28-3.52-5.1-9-5.1-15.37,0-12.17,6.87-19.9,17.77-19.9,5.41,0,9.52,1.8,12.37,5.51a13.64,13.64,0,0,1,2.55,5l-8.82,2.18a6,6,0,0,0-1.95-3.34,6.37,6.37,0,0,0-4.36-1.43c-5.54,0-8.57,4.3-8.57,12.08,0,4.31.91,7.64,2.64,9.68a7.84,7.84,0,0,0,6.23,2.5,12.27,12.27,0,0,0,6.27-1.67V169.1Z"/><path class="cls-1" d="M179.53,163.27a13.1,13.1,0,0,0-4.41-.88,6.06,6.06,0,0,0-5.15,2.5,7,7,0,0,0-1.29,4.12v7.22a54.18,54.18,0,0,0,.34,7h-9a55.27,55.27,0,0,0,.35-7V161.93a48.59,48.59,0,0,0-.35-7h8.61v3.65c2.11-3,4.71-4.21,8.64-4.21a16.17,16.17,0,0,1,4.29.56Z"/><path class="cls-1" d="M201.5,163.83c0-2.23-1.25-3.25-4.11-3.25s-4.24,1-4.89,3.25l-8.25-1.44a9.92,9.92,0,0,1,3.63-5.6c2.33-1.76,5.53-2.64,9.73-2.64a17.75,17.75,0,0,1,8,1.62c2.77,1.62,4,4.17,4,8.33v12.5a56.71,56.71,0,0,0,.3,6.58H201.5v-2.13a12,12,0,0,1-8.39,2.78c-3.29,0-5.75-.84-7.48-2.55a8.63,8.63,0,0,1-2.38-6.3,8,8,0,0,1,3.16-6.76c2.2-1.66,5.1-2.64,9-3,1.69-.18,3-.23,6.1-.32Zm0,7c-3.85.09-5.71.32-7.48.92a3.38,3.38,0,0,0-2.51,3.06c0,1.66,1.3,2.64,3.55,2.64a7.67,7.67,0,0,0,4.88-1.76,4.8,4.8,0,0,0,1.56-3.57Z"/><path class="cls-1" d="M448.77,169.1a26.56,26.56,0,0,0-4.28.23v-8.19a34.58,34.58,0,0,0,5.67.28h3.46a56.47,56.47,0,0,0,5.7-.23,48.07,48.07,0,0,0-.3,6.29v5.19a50.53,50.53,0,0,0,.3,6.9,20.66,20.66,0,0,1-5.49,2.91,27.13,27.13,0,0,1-9.17,1.58c-5.49,0-9.77-1.62-12.84-5-3.29-3.52-5.1-9-5.1-15.37,0-12.17,6.87-19.9,17.77-19.9,5.41,0,9.51,1.8,12.37,5.51a13.64,13.64,0,0,1,2.55,5l-8.82,2.18a6,6,0,0,0-1.95-3.34,6.38,6.38,0,0,0-4.37-1.43c-5.53,0-8.56,4.3-8.56,12.08,0,4.31.91,7.64,2.64,9.68a7.83,7.83,0,0,0,6.23,2.5,12.27,12.27,0,0,0,6.27-1.67V169.1Z"/><path class="cls-1" d="M483.24,163.27a13.1,13.1,0,0,0-4.41-.88,6.06,6.06,0,0,0-5.15,2.5,7.06,7.06,0,0,0-1.3,4.12v7.22a54,54,0,0,0,.35,7h-9a55.44,55.44,0,0,0,.34-7V161.93a48.87,48.87,0,0,0-.34-7h8.6v3.65c2.12-3,4.72-4.21,8.65-4.21a16.05,16.05,0,0,1,4.28.56Z"/><path class="cls-1" d="M505.21,163.83c0-2.23-1.26-3.25-4.11-3.25s-4.24,1-4.89,3.25L488,162.39a10,10,0,0,1,3.64-5.6c2.33-1.76,5.53-2.64,9.73-2.64a17.75,17.75,0,0,1,8,1.62c2.76,1.62,4,4.17,4,8.33v12.5a56.47,56.47,0,0,0,.31,6.58h-8.39v-2.13a12,12,0,0,1-8.39,2.78c-3.29,0-5.75-.84-7.48-2.55A8.63,8.63,0,0,1,487,175a8,8,0,0,1,3.16-6.76c2.2-1.66,5.1-2.64,9-3,1.69-.18,3-.23,6.1-.32Zm0,7c-3.85.09-5.71.32-7.48.92a3.38,3.38,0,0,0-2.51,3.06c0,1.66,1.3,2.64,3.54,2.64a7.7,7.7,0,0,0,4.89-1.76,4.8,4.8,0,0,0,1.56-3.57Z"/></g></svg>