<svg xmlns="http://www.w3.org/2000/svg" viewBox="0 0 767 218"><defs><style>.cls-1{fill:none;stroke:#000;stroke-miterlimit:10;}</style></defs><title>SVG用-線画</title><g id="レイヤー_2" data-name="レイヤー 2"><path class="cls-1" d="M224,42.87l-.12.5c-.13.51-.25.88-.38,1.26l-.76,3.28c-10.33,40.45-32.25,65.9-72.32,83.79-4.16-8.44-7.69-13.23-15.88-21.17,33.52-10.46,56.2-32.76,63.38-62.12H145.24c-13.36.13-16.38.25-20.79.76V26.49c4.79.75,8.32,1,21.17,1h64.26A14,14,0,0,1,224,13.89a14.24,14.24,0,0,1,.13,28.47Zm-7.18-14.75A7.19,7.19,0,1,0,224,20.94,7.24,7.24,0,0,0,216.81,28.12Z"/><path class="cls-1" d="M275.4,118.09v8.7H252.46a159.83,159.83,0,0,0,1-20.54V41.48c0-5.42-.12-9.32-.5-14.49a147.19,147.19,0,0,0,15.24.5h67.92a144.36,144.36,0,0,0,15.63-.5c-.25,4.41-.38,9-.38,14.87v63.89a169.93,169.93,0,0,0,.88,20.79h-22.8v-8.45Zm54.06-70.43H275.4V97.93h54.06Z"/><path class="cls-1" d="M460.75,29.38c-2.65,1.64-5,3.66-17.39,14.75-8.82,7.56-19.53,16-29.49,23.18-3.4,2.52-4.16,3.28-4.16,4.41,0,1.52,0,1.52,11.85,10.21,12.6,9.2,25.45,19.4,38.43,31,.63.5,2,1.64,3.91,3.15l-18,18.39c-6.43-9.32-24.32-25.32-49.65-44.6-6.3-4.92-8.57-7.18-10.2-10.33a20.56,20.56,0,0,1-1.9-8.32,17.85,17.85,0,0,1,4.67-12c1.76-2,3.65-3.66,11.46-9.58,19-14.11,35-28.48,39.44-35.15Zm-4,18.15a99.79,99.79,0,0,1,12.86,18.65L458,72.48a89.22,89.22,0,0,0-12.85-19Zm16.13-8.44a99.51,99.51,0,0,1,13,18.14l-11.21,6.18c-4.54-8.07-8.32-13.74-12.73-18.65Z"/><path class="cls-1" d="M535.71,43.5a277.35,277.35,0,0,0-5.41,30.62c10.58-6.81,21.67-9.83,36-9.83,22.43,0,37.3,11.72,37.3,29.61a31.83,31.83,0,0,1-14.24,26.71c-9.07,6.18-20.54,9.08-36,9.08a134.73,134.73,0,0,1-31.63-3.78c-.38-10.46-.88-14.49-2.9-22.43,12.47,3.9,24.19,5.92,33.64,5.92,16.64,0,27.73-5.92,27.73-14.87,0-6.68-6.56-10.58-17.9-10.58a54.5,54.5,0,0,0-27.59,7.56,21.74,21.74,0,0,0-7.06,5.67l-20.92-.89a15.69,15.69,0,0,0,.38-2.52c.63-6,3.28-26.21,5.8-43.59a71.67,71.67,0,0,0,.75-8.07Zm-2.26-27.72c6.17,3.15,13.73,5.79,25.7,8.94,8.57,2.27,19.41,4.54,25.33,5.42L577.8,50.43c-22.81-4.66-39.69-9.7-54.43-16.51Z"/><path class="cls-1" d="M74.65,200.28C62.87,182.21,58,172.47,53.13,157.85a165.28,165.28,0,0,1-8.32-52.78,165.28,165.28,0,0,1,8.32-52.78C58,37.88,62.87,28.13,74.65,10.06l12.79,8.12c-11.37,17.46-15.84,26.6-20.3,41a149.47,149.47,0,0,0-6.9,45.88,150.75,150.75,0,0,0,6.9,46.08c4.46,14.41,8.93,23.55,20.3,41Z"/><path class="cls-1" d="M652.57,10.06c11.78,18.07,16.65,27.82,21.52,42.23,5.69,16.44,8.33,33.9,8.33,52.78,0,19.08-2.64,36.34-8.33,52.78-4.87,14.62-9.74,24.36-21.52,42.43l-12.79-8.12c11.37-17.46,15.84-26.6,20.3-41A149.83,149.83,0,0,0,667,105.07a148.55,148.55,0,0,0-6.91-45.88c-4.46-14.41-8.93-23.55-20.3-41Z"/><path class="cls-1" d="M740.67,57.36v20.1H720.58V57.36Zm0,109.42c0,15-2.43,19.9-12.79,26.19l-5.48-6.7c8.33-3.86,9.75-6.9,9.75-19.49H720.58v-20.1h20.09Z"/><path class="cls-1" d="M145.06,169.1a26.56,26.56,0,0,0-4.28.23v-8.19a34.58,34.58,0,0,0,5.67.28h3.46a56.79,56.79,0,0,0,5.71-.23,46,46,0,0,0-.31,6.29v5.19a50.27,50.27,0,0,0,.31,6.9,20.7,20.7,0,0,1-5.5,2.91,27.07,27.07,0,0,1-9.16,1.58c-5.5,0-9.78-1.62-12.85-5-3.28-3.52-5.1-9-5.1-15.37,0-12.17,6.87-19.9,17.77-19.9,5.41,0,9.52,1.8,12.37,5.51a13.64,13.64,0,0,1,2.55,5l-8.82,2.18a6,6,0,0,0-1.95-3.34,6.37,6.37,0,0,0-4.36-1.43c-5.54,0-8.57,4.3-8.57,12.08,0,4.31.91,7.64,2.64,9.68a7.84,7.84,0,0,0,6.23,2.5,12.27,12.27,0,0,0,6.27-1.67V169.1Z"/><path class="cls-1" d="M179.53,163.27a13.1,13.1,0,0,0-4.41-.88,6.06,6.06,0,0,0-5.15,2.5,7,7,0,0,0-1.29,4.12v7.22a54.18,54.18,0,0,0,.34,7h-9a55.27,55.27,0,0,0,.35-7V161.93a48.59,48.59,0,0,0-.35-7h8.61v3.65c2.11-3,4.71-4.21,8.64-4.21a16.17,16.17,0,0,1,4.29.56Z"/><path class="cls-1" d="M201.5,163.83c0-2.23-1.25-3.25-4.11-3.25s-4.24,1-4.89,3.25l-8.25-1.44a9.92,9.92,0,0,1,3.63-5.6c2.33-1.76,5.53-2.64,9.73-2.64a17.75,17.75,0,0,1,8,1.62c2.77,1.62,4,4.17,4,8.33v12.5a56.71,56.71,0,0,0,.3,6.58H201.5v-2.13a12,12,0,0,1-8.39,2.78c-3.29,0-5.75-.84-7.48-2.55a8.63,8.63,0,0,1-2.38-6.3,8,8,0,0,1,3.16-6.76c2.2-1.66,5.1-2.64,9-3,1.69-.18,3-.23,6.1-.32Zm0,7c-3.85.09-5.71.32-7.48.92a3.38,3.38,0,0,0-2.51,3.06c0,1.66,1.3,2.64,3.55,2.64a7.67,7.67,0,0,0,4.88-1.76,4.8,4.8,0,0,0,1.56-3.57Z"/><path class="cls-1" d="M214.29,183.05a50.84,50.84,0,0,0,.31-6.36v-13a42.65,42.65,0,0,0-.31-6.35h7.78v1.76a4.56,4.56,0,0,1,0,.59v.42a9.27,9.27,0,0,1,7.51-3.45,8,8,0,0,1,5,1.52,5,5,0,0,1,1.61,2.1,10.42,10.42,0,0,1,8.26-3.66c5.62,0,8.49,3.28,8.49,9.64v10.43a51,51,0,0,0,.31,6.32h-8.17a49.12,49.12,0,0,0,.31-6.36V168c0-3.15-.86-4.37-3.11-4.37-2,0-3.81,1.68-4.79,4.5v8.58a52.26,52.26,0,0,0,.31,6.32h-8.18a47.93,47.93,0,0,0,.32-6.36V168c0-1.76-.16-2.56-.67-3.28a2.48,2.48,0,0,0-2.16-1.05c-2.13,0-3.94,1.64-5,4.5v8.5a50.11,50.11,0,0,0,.32,6.36Z"/><path class="cls-1" d="M257.3,183.05a50.84,50.84,0,0,0,.31-6.36v-13a42.65,42.65,0,0,0-.31-6.35h7.78v1.76a4.56,4.56,0,0,1,0,.59v.42a9.27,9.27,0,0,1,7.51-3.45,8,8,0,0,1,5,1.52,5.12,5.12,0,0,1,1.61,2.1,10.42,10.42,0,0,1,8.26-3.66c5.62,0,8.49,3.28,8.49,9.64v10.43a48.94,48.94,0,0,0,.32,6.32h-8.18a49.12,49.12,0,0,0,.31-6.36V168c0-3.15-.86-4.37-3.11-4.37-2,0-3.81,1.68-4.79,4.5v8.58a52.26,52.26,0,0,0,.31,6.32h-8.18a47.93,47.93,0,0,0,.32-6.36V168c0-1.76-.16-2.56-.67-3.28a2.48,2.48,0,0,0-2.16-1.05c-2.13,0-3.94,1.64-5,4.5v8.5a50.11,50.11,0,0,0,.32,6.36Z"/><path class="cls-1" d="M316.07,165.46c0-2-1.14-3-3.73-3s-3.85.88-4.44,3l-7.52-1.31a9.09,9.09,0,0,1,3.31-5.09c2.12-1.6,5-2.4,8.85-2.4a16.13,16.13,0,0,1,7.27,1.47c2.52,1.48,3.62,3.79,3.62,7.58v11.36a54,54,0,0,0,.27,6h-7.63v-1.94a10.91,10.91,0,0,1-7.62,2.53c-3,0-5.23-.76-6.81-2.32a7.87,7.87,0,0,1-2.16-5.72,7.25,7.25,0,0,1,2.87-6.15,15.63,15.63,0,0,1,8.18-2.73c1.53-.17,2.71-.21,5.54-.3Zm0,6.35a22,22,0,0,0-6.8.84,3.07,3.07,0,0,0-2.28,2.78c0,1.51,1.18,2.4,3.23,2.4a7,7,0,0,0,4.44-1.6,4.38,4.38,0,0,0,1.41-3.24Z"/><path class="cls-1" d="M345.52,165a11.93,11.93,0,0,0-4-.8,5.52,5.52,0,0,0-4.68,2.27,6.39,6.39,0,0,0-1.18,3.75v6.56a48.45,48.45,0,0,0,.32,6.32h-8.14a51.68,51.68,0,0,0,.31-6.36v-13a45.33,45.33,0,0,0-.31-6.35h7.82v3.32c1.93-2.69,4.29-3.83,7.87-3.83a15,15,0,0,1,3.89.51Z"/><path class="cls-1" d="M378.31,182.66a12.05,12.05,0,0,0-1.15-1.71,10.94,10.94,0,0,1-2.56,1.44,13.21,13.21,0,0,1-4.74.86A8.33,8.33,0,0,1,363.7,181a7.45,7.45,0,0,1,.11-9.7,10.1,10.1,0,0,1,3.22-2.42l-.64-.76a6.52,6.52,0,0,1-1.84-4.57c0-3.71,2.89-6,7.52-6,4.46,0,7.35,2.3,7.35,5.87,0,2.85-1.49,4.8-5.07,6.6l3.36,3.68a13.78,13.78,0,0,0,2.86-5.33l4.19,2.65a21.41,21.41,0,0,1-3.8,6.21L383,179.5c.66.74,1.87,2,3.06,3.16Zm-8.39-10.23a8.54,8.54,0,0,0-1.68,1.24,2.91,2.91,0,0,0-.91,2.15,2.72,2.72,0,0,0,3,2.74,6,6,0,0,0,3.66-1.41Zm2.2-6.13c1.6-.85,2.23-1.56,2.23-2.5,0-1.12-.88-1.83-2.23-1.83s-2.28.77-2.28,2a3.42,3.42,0,0,0,1,2.15l.55.59Z"/><path class="cls-1" d="M403.85,182.66A12.05,12.05,0,0,0,402.7,181a10.94,10.94,0,0,1-2.56,1.44,13.21,13.21,0,0,1-4.74.86,8.33,8.33,0,0,1-6.16-2.21,7.45,7.45,0,0,1,.11-9.7,10.1,10.1,0,0,1,3.22-2.42l-.64-.76a6.52,6.52,0,0,1-1.84-4.57c0-3.71,2.89-6,7.52-6,4.45,0,7.35,2.3,7.35,5.87,0,2.85-1.49,4.8-5.07,6.6l3.36,3.68a13.78,13.78,0,0,0,2.86-5.33l4.18,2.65a21.2,21.2,0,0,1-3.79,6.21l2.06,2.27c.66.74,1.87,2,3.06,3.16Zm-8.39-10.23a8.54,8.54,0,0,0-1.68,1.24,2.91,2.91,0,0,0-.91,2.15,2.72,2.72,0,0,0,3,2.74,6,6,0,0,0,3.66-1.41Zm2.2-6.13c1.6-.85,2.23-1.56,2.23-2.5,0-1.12-.88-1.83-2.23-1.83s-2.28.77-2.28,2a3.42,3.42,0,0,0,1,2.15l.55.59Z"/><path class="cls-1" d="M448.77,169.1a26.56,26.56,0,0,0-4.28.23v-8.19a34.58,34.58,0,0,0,5.67.28h3.46a56.47,56.47,0,0,0,5.7-.23,48.07,48.07,0,0,0-.3,6.29v5.19a50.53,50.53,0,0,0,.3,6.9,20.66,20.66,0,0,1-5.49,2.91,27.13,27.13,0,0,1-9.17,1.58c-5.49,0-9.77-1.62-12.84-5-3.29-3.52-5.1-9-5.1-15.37,0-12.17,6.87-19.9,17.77-19.9,5.41,0,9.51,1.8,12.37,5.51a13.64,13.64,0,0,1,2.55,5l-8.82,2.18a6,6,0,0,0-1.95-3.34,6.38,6.38,0,0,0-4.37-1.43c-5.53,0-8.56,4.3-8.56,12.08,0,4.31.91,7.64,2.64,9.68a7.83,7.83,0,0,0,6.23,2.5,12.27,12.27,0,0,0,6.27-1.67V169.1Z"/><path class="cls-1" d="M483.24,163.27a13.1,13.1,0,0,0-4.41-.88,6.06,6.06,0,0,0-5.15,2.5,7.06,7.06,0,0,0-1.3,4.12v7.22a54,54,0,0,0,.35,7h-9a55.44,55.44,0,0,0,.34-7V161.93a48.87,48.87,0,0,0-.34-7h8.6v3.65c2.12-3,4.72-4.21,8.65-4.21a16.05,16.05,0,0,1,4.28.56Z"/><path class="cls-1" d="M505.21,163.83c0-2.23-1.26-3.25-4.11-3.25s-4.24,1-4.89,3.25L488,162.39a10,10,0,0,1,3.64-5.6c2.33-1.76,5.53-2.64,9.73-2.64a17.75,17.75,0,0,1,8,1.62c2.76,1.62,4,4.17,4,8.33v12.5a56.47,56.47,0,0,0,.31,6.58h-8.39v-2.13a12,12,0,0,1-8.39,2.78c-3.29,0-5.75-.84-7.48-2.55A8.63,8.63,0,0,1,487,175a8,8,0,0,1,3.16-6.76c2.2-1.66,5.1-2.64,9-3,1.69-.18,3-.23,6.1-.32Zm0,7c-3.85.09-5.71.32-7.48.92a3.38,3.38,0,0,0-2.51,3.06c0,1.66,1.3,2.64,3.54,2.64a7.7,7.7,0,0,0,4.89-1.76,4.8,4.8,0,0,0,1.56-3.57Z"/><path class="cls-1" d="M518,190.66a56.77,56.77,0,0,0,.32-6.14V164a54.07,54.07,0,0,0-.32-6.6h7.75v1.43c0,.25,0,.59,0,.8a11.18,11.18,0,0,1,8.06-3,11.06,11.06,0,0,1,8.34,3.24c2.08,2.23,3.14,5.55,3.14,9.8s-1.18,7.79-3.42,10.19a10.85,10.85,0,0,1-8.1,3.32,13.49,13.49,0,0,1-5.31-1.09,9.25,9.25,0,0,1-2.71-1.94c0,.38,0,.93,0,1.52v2.9a46.17,46.17,0,0,0,.32,6.1Zm17.86-15.44a7.85,7.85,0,0,0,1.73-5.47c0-4.29-2.13-6.78-5.82-6.78-3.27,0-5.94,3.07-5.94,6.91s2.63,6.94,6.17,6.94A5.28,5.28,0,0,0,535.85,175.22Z"/><path class="cls-1" d="M548.34,183.05a49.6,49.6,0,0,0,.32-6.36v-22.3a43.62,43.62,0,0,0-.32-6.36h8.14a46.6,46.6,0,0,0-.31,6.36v4.46c0,.34,0,1,0,1.39a10.53,10.53,0,0,1,8.18-3.5,8.19,8.19,0,0,1,6.25,2.36c1.57,1.68,2.24,3.75,2.24,7.07v10.56a56.83,56.83,0,0,0,.32,6.32h-8.18a52.53,52.53,0,0,0,.31-6.36v-8.62a5.15,5.15,0,0,0-.63-3.16,2.92,2.92,0,0,0-2.51-1.14c-2.24,0-4.37,1.6-5.94,4.38v8.54a56.34,56.34,0,0,0,.31,6.36Z"/><path class="cls-1" d="M585.42,157.38a44.09,44.09,0,0,0-.31,6.35v13a60.71,60.71,0,0,0,.31,6.36H577.2a49.6,49.6,0,0,0,.32-6.36v-13a47.39,47.39,0,0,0-.32-6.35ZM585.3,148v6.32h-8V148Z"/><path class="cls-1" d="M605.67,166.72a6.2,6.2,0,0,0-1.1-2.48,4,4,0,0,0-3.31-1.48c-3.18,0-5.07,2.7-5.07,7.32s2,7.5,5.15,7.5a4.44,4.44,0,0,0,3.74-1.86,4.31,4.31,0,0,0,.71-1.93L613,175a12.9,12.9,0,0,1-1.65,4.16c-2,3.12-5.54,4.84-10.11,4.84a12.15,12.15,0,0,1-9.16-3.61c-2.28-2.4-3.54-6.11-3.54-10.23,0-8.42,5-13.8,12.63-13.8,6,0,10.26,3.19,11.56,8.79Z"/></g></svg>